<svg xmlns="http://www.w3.org/2000/svg" xmlns:xlink="http://www.w3.org/1999/xlink" width="500" zoomAndPan="magnify" viewBox="0 0 375 374.999991" height="500" preserveAspectRatio="xMidYMid meet" version="1.0"><defs><clipPath id="da98f61a71"><path d="M 37.5 37.5 L 337.5 37.5 L 337.5 337.5 L 37.5 337.5 Z M 37.5 37.5 " clip-rule="nonzero"/></clipPath><clipPath id="0d6b0971a0"><path d="M 187.5 37.5 C 104.65625 37.5 37.5 104.65625 37.5 187.5 C 37.5 270.34375 104.65625 337.5 187.5 337.5 C 270.34375 337.5 337.5 270.34375 337.5 187.5 C 337.5 104.65625 270.34375 37.5 187.5 37.5 Z M 187.5 37.5 " clip-rule="nonzero"/></clipPath><clipPath id="80e8ee252f"><path d="M 89.898438 90 L 284.898438 90 L 284.898438 284.898438 L 89.898438 284.898438 Z M 89.898438 90 " clip-rule="nonzero"/></clipPath></defs><g clip-path="url(#da98f61a71)"><g clip-path="url(#0d6b0971a0)"><path fill="#8c52ff" d="M 37.5 37.5 L 337.5 37.5 L 337.5 337.5 L 37.5 337.5 Z M 37.5 37.5 " fill-opacity="1" fill-rule="nonzero"/></g></g><path fill="#ffffff" d="M 234.28125 146.492188 L 265.46875 153.492188 C 265.621094 153.492188 265.925781 153.492188 266.078125 153.492188 C 267.449219 153.492188 268.664062 152.578125 268.96875 151.058594 C 269.273438 149.382812 268.359375 147.863281 266.6875 147.40625 L 235.496094 140.410156 C 233.824219 140.105469 232.300781 141.015625 231.847656 142.691406 C 231.695312 144.515625 232.605469 146.191406 234.28125 146.492188 Z M 234.28125 146.492188 " fill-opacity="1" fill-rule="nonzero"/><path fill="#ffffff" d="M 228.652344 157.449219 C 228.347656 159.121094 229.257812 160.644531 230.933594 161.101562 L 262.121094 168.097656 C 262.273438 168.097656 262.578125 168.097656 262.730469 168.097656 C 264.101562 168.097656 265.316406 167.183594 265.621094 165.664062 C 265.925781 163.992188 265.011719 162.46875 263.339844 162.011719 L 232.148438 155.015625 C 230.628906 154.863281 228.957031 155.925781 228.652344 157.449219 Z M 228.652344 157.449219 " fill-opacity="1" fill-rule="nonzero"/><path fill="#ffffff" d="M 225.152344 172.054688 C 224.847656 173.726562 225.761719 175.25 227.433594 175.707031 L 258.625 182.703125 C 258.773438 182.703125 259.078125 182.703125 259.230469 182.703125 C 260.601562 182.703125 261.816406 181.792969 262.121094 180.269531 C 262.425781 178.597656 261.515625 177.074219 259.839844 176.617188 L 228.652344 169.621094 C 227.128906 169.46875 225.609375 170.53125 225.152344 172.054688 Z M 225.152344 172.054688 " fill-opacity="1" fill-rule="nonzero"/><path fill="#ffffff" d="M 221.804688 186.8125 C 221.5 188.484375 222.414062 190.007812 224.085938 190.464844 L 255.277344 197.460938 C 255.429688 197.460938 255.734375 197.460938 255.882812 197.460938 C 257.253906 197.460938 258.472656 196.550781 258.773438 195.027344 C 259.078125 193.355469 258.167969 191.832031 256.492188 191.375 L 225.457031 184.53125 C 223.78125 184.074219 222.109375 185.136719 221.804688 186.8125 Z M 221.804688 186.8125 " fill-opacity="1" fill-rule="nonzero"/><path fill="#ffffff" d="M 223.324219 227.128906 L 244.167969 231.847656 C 244.320312 231.847656 244.625 231.847656 244.777344 231.847656 C 246.148438 231.847656 247.363281 230.933594 247.667969 229.410156 C 247.972656 227.738281 247.058594 226.214844 245.386719 225.761719 L 214.351562 218.761719 L 219.675781 222.566406 C 221.5 223.78125 222.566406 225.304688 223.324219 227.128906 Z M 223.324219 227.128906 " fill-opacity="1" fill-rule="nonzero"/><path fill="#ffffff" d="M 242.039062 240.519531 L 223.78125 236.410156 L 223.78125 242.648438 L 240.824219 246.453125 C 240.976562 246.453125 241.277344 246.453125 241.429688 246.453125 C 242.800781 246.453125 244.015625 245.539062 244.320312 244.015625 C 244.777344 242.496094 243.714844 240.976562 242.039062 240.519531 Z M 242.039062 240.519531 " fill-opacity="1" fill-rule="nonzero"/><path fill="#ffffff" d="M 248.277344 217.242188 C 249.648438 217.242188 250.863281 216.328125 251.167969 214.804688 C 251.472656 213.132812 250.558594 211.609375 248.886719 211.15625 L 208.566406 202.027344 L 208.566406 208.265625 L 247.515625 217.089844 C 247.820312 217.242188 247.972656 217.242188 248.277344 217.242188 Z M 248.277344 217.242188 " fill-opacity="1" fill-rule="nonzero"/><path fill="#ffffff" d="M 199.894531 144.515625 L 202.484375 145.429688 C 204.15625 146.039062 205.675781 147.253906 206.742188 148.625 C 209.785156 146.796875 212.21875 143.753906 212.980469 140.105469 C 213.742188 136.605469 213.132812 132.953125 211.308594 129.910156 C 209.328125 126.867188 206.285156 124.585938 202.632812 123.824219 C 199.894531 123.214844 197.308594 123.519531 194.875 124.28125 C 195.789062 125.953125 196.246094 127.933594 196.246094 129.910156 L 196.246094 130.214844 C 197.308594 129.757812 198.375 129.453125 199.59375 129.453125 C 200.199219 129.453125 200.808594 129.453125 201.265625 129.605469 C 203.242188 130.0625 204.917969 131.28125 205.980469 132.953125 C 207.046875 134.625 207.351562 136.605469 206.894531 138.582031 C 206.4375 142.234375 203.242188 144.515625 199.894531 144.515625 Z M 199.894531 144.515625 " fill-opacity="1" fill-rule="nonzero"/><path fill="#ffffff" d="M 208.566406 189.855469 L 208.566406 196.09375 L 210.242188 196.398438 C 210.394531 196.398438 210.699219 196.398438 210.851562 196.398438 C 212.21875 196.398438 213.4375 195.484375 213.742188 194.113281 L 218.152344 175.097656 C 218.914062 171.597656 218.304688 167.945312 216.480469 164.902344 C 214.652344 162.011719 211.761719 159.882812 208.566406 158.96875 L 208.566406 165.511719 C 209.632812 166.121094 210.699219 167.035156 211.308594 168.097656 C 212.371094 169.773438 212.675781 171.75 212.21875 173.726562 Z M 208.566406 189.855469 " fill-opacity="1" fill-rule="nonzero"/><g clip-path="url(#80e8ee252f)"><path fill="#ffffff" d="M 93.851562 252.234375 L 182.09375 284.488281 C 182.703125 284.792969 183.464844 284.792969 184.226562 284.792969 C 185.441406 284.792969 186.660156 284.488281 187.726562 283.726562 C 189.398438 282.660156 190.3125 280.683594 190.3125 278.707031 L 190.3125 272.164062 L 198.222656 275.511719 C 198.527344 275.664062 198.984375 275.816406 199.441406 275.816406 C 200.046875 275.816406 200.65625 275.664062 201.113281 275.359375 C 202.027344 274.75 202.484375 273.835938 202.484375 272.773438 L 202.484375 263.949219 L 214.652344 263.949219 C 216.328125 263.949219 217.695312 262.578125 217.695312 260.90625 L 217.695312 230.171875 C 217.695312 229.109375 217.242188 228.195312 216.328125 227.738281 L 202.484375 218 L 202.484375 154.101562 C 202.484375 152.882812 201.722656 151.667969 200.503906 151.210938 L 190.3125 147.558594 L 190.3125 130.0625 C 190.3125 127.476562 188.789062 125.195312 186.355469 124.28125 L 109.523438 96.285156 L 207.960938 96.285156 L 207.960938 108.152344 L 223.78125 108.152344 L 223.78125 116.21875 L 176.617188 105.566406 C 175.859375 105.414062 175.25 105.414062 174.488281 105.414062 C 170.835938 105.414062 167.792969 107.546875 166.273438 110.589844 L 172.054688 112.71875 C 172.664062 111.957031 173.574219 111.5 174.488281 111.5 C 174.640625 111.5 174.945312 111.5 175.097656 111.652344 L 276.121094 134.476562 C 277.792969 134.777344 278.859375 136.453125 278.402344 138.125 L 248.582031 266.6875 L 223.78125 261.058594 C 223.78125 263.1875 222.871094 265.316406 221.5 266.839844 L 247.210938 272.621094 C 247.667969 272.773438 248.125 272.773438 248.582031 272.773438 C 251.320312 272.773438 253.90625 270.945312 254.515625 268.054688 L 284.488281 139.34375 C 285.097656 136.910156 284.640625 134.476562 283.269531 132.496094 C 281.902344 130.367188 279.921875 128.996094 277.488281 128.390625 L 229.867188 117.738281 L 229.867188 108.304688 C 229.867188 104.957031 227.128906 102.21875 223.78125 102.21875 L 214.046875 102.21875 L 214.046875 96.285156 C 214.046875 92.941406 211.308594 90.199219 207.960938 90.199219 L 95.984375 90.199219 C 92.636719 90.199219 89.898438 92.941406 89.898438 96.285156 L 89.898438 96.894531 C 89.898438 97.199219 89.898438 97.503906 89.898438 97.808594 L 89.898438 246.605469 C 89.898438 249.191406 91.417969 251.472656 93.851562 252.234375 Z M 190.3125 153.949219 L 196.398438 156.230469 L 196.398438 219.523438 C 196.398438 220.585938 196.851562 221.5 197.765625 221.957031 L 211.609375 231.695312 L 211.609375 257.710938 L 199.441406 257.710938 C 197.765625 257.710938 196.398438 259.078125 196.398438 260.753906 L 196.398438 268.054688 L 190.3125 265.46875 Z M 95.984375 97.808594 L 184.226562 130.0625 L 184.226562 278.859375 L 95.984375 246.605469 Z M 95.984375 97.808594 " fill-opacity="1" fill-rule="nonzero"/></g></svg>